<svg width="24" height="24" viewBox="0 0 24 24" fill="none" xmlns="http://www.w3.org/2000/svg">
<path fill-rule="evenodd" clip-rule="evenodd" d="M16.7673 6.5428C16.7673 3.91124 14.634 1.77795 12.0024 1.77795C9.37089 1.77795 7.2376 3.91125 7.2376 6.5428V13.5647C7.2376 16.1963 9.37089 18.3296 12.0024 18.3296C14.634 18.3296 16.7673 16.1963 16.7673 13.5647V6.5428ZM12.0024 3.28264C13.803 3.28264 15.2626 4.74226 15.2626 6.5428V13.5647C15.2626 15.3652 13.803 16.8249 12.0024 16.8249C10.2019 16.8249 8.74229 15.3652 8.74229 13.5647V6.5428C8.74229 4.74226 10.2019 3.28264 12.0024 3.28264Z" fill="black" fill-opacity="0.86"/>
<path fill-rule="evenodd" clip-rule="evenodd" d="M20.0274 8.79983C19.6119 8.79983 19.2751 9.13666 19.2751 9.55217V13.5647C19.2751 17.5813 16.019 20.8374 12.0024 20.8374C7.98587 20.8374 4.72979 17.5813 4.72979 13.5647V9.55217C4.72979 9.13666 4.39295 8.79983 3.97744 8.79983C3.56193 8.79983 3.2251 9.13666 3.2251 9.55217V13.5647C3.2251 18.4123 7.15485 22.3421 12.0024 22.3421C16.85 22.3421 20.7798 18.4123 20.7798 13.5647V9.55217C20.7798 9.13666 20.443 8.79983 20.0274 8.79983Z" fill="black" fill-opacity="0.86"/>
</svg>
